<?xml version="1.0" encoding="UTF-8"?>
<svg version="1.1" xmlns="http://www.w3.org/2000/svg" width="280" height="100">
<path d="M0 0 C2.64 0 5.28 0 8 0 C8 12.87 8 25.74 8 39 C9.32 39.66 10.64 40.32 12 41 C11.34 42.65 10.68 44.3 10 46 C8.906875 45.835 7.81375 45.67 6.6875 45.5 C2.19206366 44.76040363 2.19206366 44.76040363 -2 46 C-6.5519362 46.59635648 -11.05776304 47.02259119 -15.2109375 44.8359375 C-19.4825142 41.32134907 -21.67283542 37.91898786 -22.30078125 32.31640625 C-22.32417338 26.81925641 -22.30528404 22.62739766 -19 18 C-15.29144055 14.37055648 -12.27914282 11.85559139 -7 11.875 C-5.948125 11.87113281 -5.948125 11.87113281 -4.875 11.8671875 C-3 12 -3 12 -1 13 C-0.67 8.71 -0.34 4.42 0 0 Z M-13 23 C-14.74194959 26.48389917 -14.57670324 30.19900139 -14 34 C-12.06078239 37.19003883 -12.06078239 37.19003883 -9 39 C-4.85775694 39.57991403 -3.51824511 39.34549674 0 37 C0.30330339 34.24053386 0.41834858 31.75504315 0.375 29 C0.38660156 28.26265625 0.39820313 27.5253125 0.41015625 26.765625 C0.43409002 24.37184431 0.43409002 24.37184431 0 21 C-5.28008911 17.47994059 -9.07684792 18.05973442 -13 23 Z " fill="#FEFEFE" transform="translate(72,24)"/>
<path d="M0 0 C1.17369141 -0.00386719 1.17369141 -0.00386719 2.37109375 -0.0078125 C4.5625 0.125 4.5625 0.125 7.5625 1.125 C9.8725 1.125 12.1825 1.125 14.5625 1.125 C14.5625 9.705 14.5625 18.285 14.5625 27.125 C15.8825 27.785 17.2025 28.445 18.5625 29.125 C17.9025 30.775 17.2425 32.425 16.5625 34.125 C15.469375 33.96 14.37625 33.795 13.25 33.625 C8.75456366 32.88540363 8.75456366 32.88540363 4.5625 34.125 C0.0105638 34.72135648 -4.49526304 35.14759119 -8.6484375 32.9609375 C-12.9200142 29.44634907 -15.11033542 26.04398786 -15.73828125 20.44140625 C-15.76167338 14.94425641 -15.74278404 10.75239766 -12.4375 6.125 C-8.52792166 2.298826 -5.52873916 -0.01815678 0 0 Z M-5.3125 9 C-8.29047558 13.37937585 -8.3321994 16.97625816 -7.4375 22.125 C-6.10733836 25.35338773 -6.10733836 25.35338773 -3.4375 27.125 C0.97809065 27.66726552 2.82994552 27.61336965 6.5625 25.125 C6.86580339 22.36553386 6.98084858 19.88004315 6.9375 17.125 C6.94910156 16.38765625 6.96070313 15.6503125 6.97265625 14.890625 C6.99659002 12.49684431 6.99659002 12.49684431 6.5625 9.125 C2.0914661 6.14431074 -0.77508012 6.04081312 -5.3125 9 Z " fill="#FEFEFE" transform="translate(203.4375,35.875)"/>
<path d="M0 0 C0.2673999 0.60062256 0.5347998 1.20124512 0.81030273 1.82006836 C2.01700028 4.52694194 3.22720141 7.23223472 4.4375 9.9375 C4.85837891 10.88302734 5.27925781 11.82855469 5.71289062 12.80273438 C6.11572266 13.70185547 6.51855469 14.60097656 6.93359375 15.52734375 C7.30540771 16.35999756 7.67722168 17.19265137 8.06030273 18.05053711 C8.84730109 19.95727812 8.84730109 19.95727812 10 21 C12.64 14.07 15.28 7.14 18 0 C20.31 0.66 22.62 1.32 25 2 C24.08540456 8.59184804 21.82277418 14.61266254 19.55444336 20.83056641 C18.8187862 22.8576783 18.10353691 24.89126009 17.38867188 26.92578125 C11.37964352 43.67040239 11.37964352 43.67040239 4.0625 47.5625 C0.46482339 48.0764538 -2.45625691 47.76433675 -6 47 C-6.33 46.67 -6.66 46.34 -7 46 C-6.71269945 43.66055264 -6.38063221 41.3260857 -6 39 C-5.113125 39.268125 -4.22625 39.53625 -3.3125 39.8125 C0.16106845 40.36886017 0.16106845 40.36886017 2.875 37.8125 C5.40188873 35.05559214 5.40188873 35.05559214 5 31 C3.83540395 28.45985129 2.62486886 26.02348403 1.3125 23.5625 C-2.3336314 16.52928739 -5.33915004 9.47084796 -8 2 C-5.09399739 0.74335022 -3.20395416 0 0 0 Z " fill="#FEFEFE" transform="translate(90,36)"/>
<path d="M0 0 C2.31 0 4.62 0 7 0 C7.33 7.26 7.66 14.52 8 22 C13.445 17.05 13.445 17.05 19 12 C23 14 23 14 25 17 C21.37 20.3 17.74 23.6 14 27 C17.01845198 30.59339521 19.9483894 33.98725183 23.4375 37.125 C26 40 26 40 26.125 42.75 C24.77499196 45.45001607 23.68420259 45.80460614 21 47 C20.22914063 46.15695313 19.45828125 45.31390625 18.6640625 44.4453125 C17.65106568 43.33851968 16.63804353 42.23175006 15.625 41.125 C15.11710937 40.56941406 14.60921875 40.01382813 14.0859375 39.44140625 C12.0883974 37.25988219 10.09183907 35.09183907 8 33 C7.67 37.29 7.34 41.58 7 46 C4.69 46 2.38 46 0 46 C0 30.82 0 15.64 0 0 Z " fill="#FEFEFE" transform="translate(254,24)"/>
<path d="M0 0 C10.89 0 21.78 0 33 0 C33 2.31 33 4.62 33 7 C29.04 7 25.08 7 21 7 C21 19.21 21 31.42 21 44 C18.03 44 15.06 44 12 44 C12 31.79 12 19.58 12 7 C8.04 7 4.08 7 0 7 C0 4.69 0 2.38 0 0 Z " fill="#FDFDFD" transform="translate(1,26)"/>
<path d="M0 0 C10.89 0 21.78 0 33 0 C33 2.31 33 4.62 33 7 C28.71 7 24.42 7 20 7 C20 19.21 20 31.42 20 44 C17.36 44 14.72 44 12 44 C12 31.79 12 19.58 12 7 C8.04 7 4.08 7 0 7 C0 4.69 0 2.38 0 0 Z " fill="#FFFFFF" transform="translate(132,26)"/>
<path d="M0 0 C0.845625 -0.00515625 1.69125 -0.0103125 2.5625 -0.015625 C5.13478811 0.26468845 6.7803108 0.9551813 9 2.25 C8.625 5.1875 8.625 5.1875 8 8.25 C5.46858579 9.5157071 4.37529913 9.06047775 1.625 8.5625 C-2.12327975 8.08528022 -2.12327975 8.08528022 -5.5 9.75 C-7.48317368 13.05528946 -7.93351867 15.3940829 -8 19.25 C-6.4816464 23.05364069 -6.4816464 23.05364069 -4 26.25 C2.08468557 26.48376923 2.08468557 26.48376923 8 25.25 C8.66 27.56 9.32 29.87 10 32.25 C4.78342127 35.39771661 -1.12380638 35.07924387 -7 34.25 C-11.43912978 31.96362546 -14.03822538 28.79536173 -16 24.25 C-17.40543898 17.87146923 -16.93350213 13.13948319 -14 7.25 C-9.90820318 2.31886024 -6.43032782 -0.03920932 0 0 Z " fill="#FEFEFE" transform="translate(240,35.75)"/>
<path d="M0 0 C1.60031344 3.20062687 0.03173691 5.72271806 -1 9 C-2.093125 8.9175 -3.18625 8.835 -4.3125 8.75 C-7.96522674 8.59083227 -7.96522674 8.59083227 -9.69848633 10.70410156 C-11.18829853 13.3321627 -11.42014158 14.98064379 -11.51171875 17.984375 C-11.54716797 18.91894531 -11.58261719 19.85351562 -11.61914062 20.81640625 C-11.65297852 22.26853516 -11.65297852 22.26853516 -11.6875 23.75 C-11.72166016 24.73355469 -11.75582031 25.71710937 -11.79101562 26.73046875 C-11.87335273 29.15353199 -11.94254838 31.57623998 -12 34 C-14.64 34 -17.28 34 -20 34 C-20 23.11 -20 12.22 -20 1 C-16.66666667 1 -13.33333333 1 -10 1 C-6.78548731 -0.60725635 -3.56387464 -0.05748185 0 0 Z " fill="#FEFEFE" transform="translate(188,36)"/>
<path d="M0 0 C2.64 0 5.28 0 8 0 C8 10.89 8 21.78 8 33 C5.36 33 2.72 33 0 33 C0 22.11 0 11.22 0 0 Z " fill="#FFFFFF" transform="translate(37,37)"/>
<path d="M0 0 C1.32841008 5.43440487 1.32841008 5.43440487 -0.125 7.9375 C-2 9 -2 9 -4.5625 8.8125 C-7 8 -7 8 -9 6 C-8.75 2.9375 -8.75 2.9375 -8 0 C-5.13822943 -1.43088528 -3.06624227 -0.59991697 0 0 Z " fill="#FEFEFE" transform="translate(45,25)"/>
</svg>
